<svg width="860" height="167" viewBox="0 0 860 167" fill="none" xmlns="http://www.w3.org/2000/svg">
<path d="M103.845 151.404C92.1003 161.216 75.4497 166.122 53.893 166.122C32.3363 166.122 17.3953 161.142 9.07 151.181C3.12333 144.342 0.15 134.902 0.15 122.86C0.15 117.508 0.744667 111.636 1.934 105.243L19.997 2.43999H60.137L42.074 104.351C41.4793 108.068 41.182 111.933 41.182 115.947C41.182 126.354 47.426 131.557 59.914 131.557C67.3473 131.557 73.294 129.624 77.754 125.759C82.214 121.894 85.336 114.758 87.12 104.351L105.183 2.43999H145.323L127.26 105.243C123.543 126.056 115.738 141.443 103.845 151.404ZM306.42 37.228H251.562L229.485 163H189.122L211.199 37.228H156.118L162.362 2.43999H312.664L306.42 37.228ZM369.232 163L370.57 127.989H333.329L322.402 163H279.809L337.12 2.43999H410.71L411.602 163H369.232ZM360.089 41.465L342.472 98.107H371.685L374.138 41.465H360.089ZM473.772 117.285C473.772 127.543 481.131 132.672 495.849 132.672C510.716 132.672 518.149 128.063 518.149 118.846C518.149 113.94 515.622 109.926 510.567 106.804C505.513 103.682 499.343 101.08 492.058 98.999C484.922 96.9177 477.712 94.539 470.427 91.863C463.291 89.0383 457.196 84.727 452.141 78.929C447.087 72.9823 444.559 65.6233 444.559 56.852C444.559 19.5367 468.569 0.878987 516.588 0.878987C534.131 0.878987 547.362 4.22399 556.282 10.914C565.351 17.4553 569.885 26.5983 569.885 38.343C569.885 42.6543 569.291 46.817 568.101 50.831C567.061 54.6963 565.946 57.4467 564.756 59.082L562.972 61.758H523.501C526.772 58.3387 528.407 54.0273 528.407 48.824C528.407 39.1607 522.089 34.329 509.452 34.329C493.545 34.329 485.591 39.3837 485.591 49.493C485.591 54.5477 488.119 58.5617 493.173 61.535C498.228 64.5083 504.323 66.887 511.459 68.671C518.744 70.3063 526.029 72.3877 533.313 74.915C540.598 77.4423 546.768 81.6793 551.822 87.626C556.877 93.424 559.404 101.006 559.404 110.372C559.404 129.253 553.755 143.302 542.456 152.519C531.158 161.588 513.764 166.122 490.274 166.122C466.785 166.122 450.729 161.959 442.106 153.634C435.714 147.39 432.517 138.767 432.517 127.766C432.517 123.603 432.963 119.069 433.855 114.163L434.524 110.595H474.664L474.218 113.271C473.921 114.758 473.772 116.096 473.772 117.285ZM731.435 2.43999L680.368 83.389L703.114 163H660.744L644.019 104.128H626.402L615.921 163H575.781L604.102 2.43999H644.242L632.423 69.34H646.695L689.065 2.43999H731.435ZM762.976 117.285C762.976 127.543 770.335 132.672 785.053 132.672C799.919 132.672 807.353 128.063 807.353 118.846C807.353 113.94 804.825 109.926 799.771 106.804C794.716 103.682 788.546 101.08 781.262 98.999C774.126 96.9177 766.915 94.539 759.631 91.863C752.495 89.0383 746.399 84.727 741.345 78.929C736.29 72.9823 733.763 65.6233 733.763 56.852C733.763 19.5367 757.772 0.878987 805.792 0.878987C823.334 0.878987 836.566 4.22399 845.486 10.914C854.554 17.4553 859.089 26.5983 859.089 38.343C859.089 42.6543 858.494 46.817 857.305 50.831C856.264 54.6963 855.149 57.4467 853.96 59.082L852.176 61.758H812.705C815.975 58.3387 817.611 54.0273 817.611 48.824C817.611 39.1607 811.292 34.329 798.656 34.329C782.748 34.329 774.795 39.3837 774.795 49.493C774.795 54.5477 777.322 58.5617 782.377 61.535C787.431 64.5083 793.527 66.887 800.663 68.671C807.947 70.3063 815.232 72.3877 822.517 74.915C829.801 77.4423 835.971 81.6793 841.026 87.626C846.08 93.424 848.608 101.006 848.608 110.372C848.608 129.253 842.958 143.302 831.66 152.519C820.361 161.588 802.967 166.122 779.478 166.122C755.988 166.122 739.932 161.959 731.31 153.634C724.917 147.39 721.721 138.767 721.721 127.766C721.721 123.603 722.167 119.069 723.059 114.163L723.728 110.595H763.868L763.422 113.271C763.124 114.758 762.976 116.096 762.976 117.285Z" fill="url(#paint0_linear_1_2)"/>
<defs>
<linearGradient id="paint0_linear_1_2" x1="63" y1="29.5" x2="1489" y2="34.5" gradientUnits="userSpaceOnUse">
<stop stop-color="#00FF85"/>
<stop offset="0.9999" stop-color="#DBFF00"/>
<stop offset="1" stop-color="#00F0FF" stop-opacity="0.78"/>
</linearGradient>
</defs>
</svg>
